<?xml version="1.0" encoding="UTF-8" standalone="no"?>
<svg
   xmlns:dc="http://purl.org/dc/elements/1.1/"
   xmlns:cc="http://creativecommons.org/ns#"
   xmlns:rdf="http://www.w3.org/1999/02/22-rdf-syntax-ns#"
   xmlns:svg="http://www.w3.org/2000/svg"
   xmlns="http://www.w3.org/2000/svg"
   id="svg4137"
   viewBox="0 0 421.63956 529.16773"
   style="clip-rule:evenodd;fill-rule:evenodd;image-rendering:optimizeQuality;shape-rendering:geometricPrecision;text-rendering:geometricPrecision"
   version="1.1"
   height="5.2916665mm"
   width="4.2163997mm"
   xml:space="preserve"><metadata
   id="metadata4141"><rdf:RDF><cc:Work
       rdf:about=""><dc:format>image/svg+xml</dc:format><dc:type
         rdf:resource="http://purl.org/dc/dcmitype/StillImage" /><dc:title></dc:title></cc:Work></rdf:RDF></metadata>
 <defs
   id="defs4072">
  <style
   id="style4070"
   type="text/css">
   <![CDATA[
    .fil2 {fill:#12273F}
    .fil3 {fill:#132440}
    .fil0 {fill:#FC9C2C}
    .fil1 {fill:#132440;fill-rule:nonzero}
   ]]>
  </style>
 </defs>
 <g
   transform="matrix(0.04166675,0,0,0.04166675,-627.15923,-148.96321)"
   id="Слой_x0020_1">
  <metadata
   id="CorelCorpID_0Corel-Layer" />
  <g
   id="_508453517232">
   <g
   id="g4129">
    <g
   id="g4077">
     <path
   style="fill:#fc9c2c"
   id="path4075"
   d="m 25170.56,8687.13 c 0,2.14 0,4.28 -0.03,6.42 -0.26,20.39 -0.63,40.75 -1.1,61.14 -6.05,261.84 -65.56,542.56 -129.99,796 -190.81,750.78 -545.8,1450.35 -1031.87,2053 -275.33,341.42 -594.92,665.53 -902.51,978.28 -375.24,381.52 -755.06,758.36 -1125.32,1144.81 -320.36,334.38 -636.41,676.78 -929.41,1035.52 -240.76,294.79 -483.43,618.75 -660.68,956.37 l -292.14,556.44 -269.28,-567.87 c -163.84,-345.51 -405.41,-678.27 -644.49,-975.41 -293.55,-364.84 -614.76,-710.9 -940.54,-1047.04 -370.63,-382.46 -752.01,-753.96 -1128.56,-1130.51 -309.85,-309.85 -633.52,-632.85 -908.24,-974.24 -513.95,-638.68 -881.46,-1385 -1061.93,-2185.29 -46.59,-206.67 -86.73,-427.94 -91.65,-640.04 -0.47,-20.38 -0.84,-40.77 -1.1,-61.16 -0.03,-2.17 -0.03,-4.34 -0.03,-6.51 -0.15,-17.38 -0.26,-34.78 -0.26,-52.18 0,-2794.28 2265.43,-5059.75 5059.69,-5059.75 2794.3,0 5059.67,2265.47 5059.67,5059.75 0,17.31 -0.11,34.66 -0.23,51.98 0,0.08 0,0.2 0,0.29 z"
   class="fil0" />
    </g>
    <g
   id="g4127">
     <path
   style="fill:#132440;fill-rule:nonzero"
   id="path4079"
   d="m 20111.13,12112.59 c -2036.17,0 -3686.91,-1650.74 -3686.91,-3686.92 0,-2036.2 1650.74,-3686.86 3686.91,-3686.86 2036.17,0 3686.91,1650.66 3686.91,3686.86 0,2036.18 -1650.74,3686.92 -3686.91,3686.92 z m 4745.85,-3477.75 c 0,-2621.03 -2124.74,-4745.91 -4745.85,-4745.91 -2621.11,0 -4745.89,2124.88 -4745.89,4745.91 0,16.75 0.11,33.36 0.25,49.97 0,1.3 0.12,2.6 0.12,3.9 0,0.15 -0.12,0.38 -0.12,0.69 0.27,19.32 0.64,38.68 1.06,58.01 3.92,166.44 36.87,368.71 84.06,578.3 169.95,753.43 516.02,1455.79 1000.29,2057.59 828.5,1029.58 2993.43,2781.92 3660.91,4189.48 718.39,-1368.34 2831.69,-3149.56 3651.51,-4166.08 457.94,-567.82 792.27,-1226.22 971.96,-1933.28 66.39,-261.07 115.6,-520.08 120.43,-726.01 0.38,-19.33 0.77,-38.69 1.02,-58.01 0,-0.31 -0.13,-0.54 -0.13,-0.69 0,-1.3 0.13,-2.6 0.13,-3.9 0.13,-16.61 0.25,-33.22 0.25,-49.97 z"
   class="fil1" />
     <g
   id="g4125">
      <g
   id="g4085">
       <path
   style="fill:#12273f"
   id="path4081"
   d="m 20980.29,10728.01 2.06,-2.06 c -0.13,0.14 -2.74,1.37 -2.06,2.06 z"
   class="fil2" />
       <path
   style="fill:#12273f"
   id="path4083"
   d="m 18290.84,10976.27 2.06,-2.06 c -0.14,0.14 -2.75,1.37 -2.06,2.06 z"
   class="fil2" />
      </g>
      <g
   id="g4091">
       <path
   style="fill:#12273f"
   id="path4087"
   d="m 17980.52,10714.22 2.05,-2.06 c -0.13,0.13 -2.74,1.37 -2.05,2.06 z"
   class="fil2" />
       <path
   style="fill:#12273f"
   id="path4089"
   d="m 19345.93,6018 2.06,-2.06 c -0.14,0.14 -2.74,1.37 -2.06,2.06 z"
   class="fil2" />
      </g>
      <g
   id="g4097">
       <path
   style="fill:#12273f"
   id="path4093"
   d="m 20649.28,11810.69 c 0.69,0.68 2.06,-3.02 2.06,-2.06 v 0.01 c -0.13,0.13 -2.74,1.36 -2.06,2.05 z"
   class="fil2" />
       <path
   style="fill:#12273f"
   id="path4095"
   d="m 19345.93,5762.84 2.06,-2.05 c -0.14,0.13 -2.74,1.37 -2.06,2.05 z"
   class="fil2" />
      </g>
      <g
   id="g4103">
       <path
   style="fill:#12273f"
   id="path4099"
   d="m 22504.32,6424.87 c 0.68,0.68 2.05,-3.03 2.05,-2.06 h 0.01 c -0.14,0.13 -2.75,1.37 -2.06,2.06 z"
   class="fil2" />
       <path
   style="fill:#12273f"
   id="path4101"
   d="m 17711.57,6424.87 2.06,-2.06 c -0.14,0.13 -2.75,1.37 -2.06,2.06 z"
   class="fil2" />
      </g>
      <g
   id="g4111">
       <path
   style="fill:#12273f"
   id="path4105"
   d="m 19394.2,11107.29 c 0.69,0.69 2.06,-3.02 2.06,-2.06 v 0.01 c -0.13,0.13 -2.74,1.37 -2.06,2.05 z"
   class="fil2" />
       <path
   style="fill:#12273f"
   id="path4107"
   d="m 18346,5824.91 2.06,-2.06 c -0.13,0.14 -2.74,1.38 -2.06,2.06 z"
   class="fil2" />
       <path
   style="fill:#12273f"
   id="path4109"
   d="m 21869.88,5824.91 2.06,-2.06 c -0.14,0.14 -2.74,1.38 -2.06,2.06 z"
   class="fil2" />
      </g>
      <path
   style="fill:#12273f"
   id="path4113"
   d="m 20759.62,11334.86 c 0,-191.22 -17.93,-98.81 136.96,-290.6 22.23,-27.53 43.27,-49.63 66.03,-78.78 286.87,-367.39 390.79,-514.34 608.37,-963.93 13.13,-27.14 37.33,-73.5 43.75,-101.07 106.59,2.38 727.75,216.58 846.42,263.84 42.01,16.73 26.76,17.36 50.07,25.79 -6.16,23.06 -94.34,128.76 -115.7,153.26 -15.67,17.97 -25.06,32.05 -41.11,48.54 -19.15,19.67 -24.48,28.79 -41.51,48.14 l -328.69,305.74 c -36.02,28.36 -65.78,50.83 -101.51,77.79 -37.89,28.6 -69.49,49.42 -110.78,75.41 -147.54,92.85 -165.88,112.11 -338.77,199.12 l -255.45,110.05 c -180.9,64.42 -224.64,81.64 -418.08,126.7 z m -365.49,524.1 h -75.17 c -18.15,-1.45 -34.63,-5.65 -60.02,-16.52 -53.03,-22.67 -95.4,-55.28 -128.99,-98.57 -13.41,-17.27 -19.11,-31.24 -39.25,-36.62 -10.13,37.94 -72.85,80.12 -107.98,98.9 -140.88,75.31 -336.22,48.89 -437.9,-77.11 -51.9,-64.31 -84.69,-135.88 -89.31,-221.57 -0.46,-8.54 -1.76,-36.86 -1.94,-37.81 -4.71,-24.98 5.09,-11.56 -21.35,-20.63 l -537.53,-173.23 c -27.82,-11.03 -43.43,-20.07 -66.93,-29.62 -112.01,-45.51 -229.06,-107.09 -329.73,-173.68 -1.23,-0.81 -2.87,-1.98 -4.1,-2.8 -1.22,-0.81 -2.85,-2.01 -4.07,-2.83 l -174.21,-115.42 c -138.9,-95.88 -176.75,-144.61 -279.97,-223.44 -21.03,-16.07 -33.85,-30.39 -53.44,-50 -142.91,-143.01 -258.36,-264.89 -379.13,-427.71 -146.22,-197.16 -270.79,-413.97 -362.46,-644.36 -147.52,-370.8 -168.12,-511.79 -221.68,-888.58 -12.98,-91.25 -9.38,-195.85 -16.91,-286.97 -2.16,-26.09 6.42,-57.09 6.2,-95.22 -0.54,-95.41 3.09,-181.58 16.57,-279.97 8.7,-63.49 15.63,-114.9 25.62,-174.37 28.21,-168.04 70.68,-323.18 124.03,-482.82 l 129.23,-318.94 c 7.45,-12.09 10.02,-16.84 17.13,-31.17 134,-269.79 168.22,-290.53 306.51,-500.38 37.93,-57.55 88.51,-111.01 134.15,-162.37 12.2,-13.73 12.09,-17.11 24.26,-30.92 l 68.76,-76.04 c 115.4,-119.89 241.14,-234.47 375.25,-335.05 19.61,-14.71 34.86,-26.93 55.53,-41.01 l 185.16,-125.17 c 150.16,-89.91 302.25,-172.4 465.65,-237.74 603.3,-241.24 1186.35,-287.26 1840.25,-158.6 233.22,45.89 471.08,129.54 682.06,235.11 202.47,101.31 384.48,214.72 566.22,350.95 69.37,52 129.83,113.13 197.97,167.53 30.46,24.32 64.6,63.21 93.79,92.39 l 89.51,96.69 c 20.1,20.81 27.45,26.21 46.15,50.39 15.69,20.29 26.93,27.01 42.55,47.1 l 230.38,314.41 c 13.19,19.99 22.83,37.28 37.28,59.27 l 98.38,170.56 c 64.85,120.47 120.45,243.74 165.12,372.78 159.51,460.81 234.64,937.69 173.05,1429.73 -61.17,488.65 -215.68,942.83 -483.49,1343.97 -50.61,75.8 -96.4,142.6 -151.86,213.63 l -129.14,153.59 c -114.62,143.58 -367.54,363.82 -531.33,475.49 -20.27,13.83 -32.03,23.65 -52.33,37.32 -19.38,13.05 -35.32,21.23 -54.67,34.98 -139.14,98.84 -320.75,190.88 -477.79,253.2 -121.54,48.22 -447.67,172.38 -558.59,172.38 0,109.49 -6.67,190.75 -69.78,275.02 -46.57,62.19 -115.9,94.19 -129.45,111.91 -7.35,9.61 -4.4,-9.79 -7.65,19.94 h -32.22 c -40.48,0 -80.96,-0.01 -121.43,0 z m -2682.56,-1668.85 c 30.15,-10.91 -0.38,-0.53 21.67,-12.8 102.85,-57.27 806.61,-276.33 895.5,-283.72 l 271.75,514.4 c 50.08,76.17 100.17,165.25 157.75,242.22 20.2,27.01 34.88,48.79 55.19,75.83 l 289.34,365.79 c 13.98,14.93 20.71,20.02 33.41,36.04 28.13,35.52 13.19,12 13.19,41.49 v 137.92 c 0,26.37 -2.12,2.51 6.9,20.69 -112.68,0 -592.39,-179.44 -725.46,-260.68 l -284.23,-170.91 c -75.53,-45.87 -139.79,-96.88 -208.01,-150.59 -19.14,-15.07 -29.39,-25.81 -48.03,-41.61 l -174.47,-156.55 c -108.01,-97.92 -197.55,-217.47 -286.12,-327.62 z m 3048.05,827.53 V 9741.87 L 21497.5,9866 c -2.4,28.77 -85.27,200.58 -108.77,242.93 -15.25,27.49 -25.96,47.74 -40.56,76.68 -8.43,16.71 -11.32,20.2 -20.16,35 -83.17,139.3 -127.57,223.45 -228.63,364.44 -10.72,14.96 -13.68,22.61 -24.44,37.62 l -99.53,134.93 c -34.08,45.3 -66.46,89.09 -103.68,130.8 -22.56,25.28 -84.62,109.1 -112.11,129.24 z m -1310.25,-1227.5 c 0,143.05 -6.13,1091.04 3.11,1149.48 1.24,7.87 0.92,9.33 3.79,22.86 h -13.79 c -5.81,-21.76 -24.55,-37.52 -46.1,-64.24 -264.22,-327.6 -432.19,-583.09 -616.03,-956.28 -8.87,-18.02 -29.81,-63.28 -34.38,-82.86 31.6,0 126.76,-23.28 168.39,-31.6 l 352.62,-61.14 c 61.59,-9.8 127.4,-11.68 182.39,-24.49 11.8,25.52 0,26.15 0,48.27 z m 3144.6,296.54 -452.54,-161.22 c -56.41,-18.81 -423.1,-134.08 -478.43,-135.32 l 97.4,-288.78 c 98.55,-318.19 143.96,-691.96 143.96,-1028.36 h 1193.02 c 0,183.92 -16.94,338.36 -49.97,501.71 -62.55,309.3 -100.61,407.16 -220.92,689.36 -43.02,100.91 -125.78,249.87 -182.9,341.21 -25.56,40.87 -42.24,49.71 -49.62,81.4 z M 17125.41,8507.48 V 8473 h 1193.01 c 0,452.08 87.25,829.69 233.52,1235.34 10.78,29.9 20.67,41.18 28.53,74.91 -33.33,2.77 -88.27,20.28 -121.69,30.02 -234.73,68.48 -486.76,139.14 -713.72,231.04 -34.03,13.77 -81.16,34.19 -116.24,42.37 -6.4,-27.46 -7.36,-21.79 -21.6,-40.47 -10.41,-13.65 -15.04,-21.54 -24.48,-37.58 -128.78,-218.92 -211.01,-359.17 -297.92,-619.26 -45.52,-136.23 -77.04,-254.34 -108.28,-408.93 -28.12,-139.11 -51.13,-311.66 -51.13,-472.96 z M 18435.65,8473 h 599.96 c 0,173.54 -6.9,323.54 -6.9,496.51 0,32.59 19.78,88.06 31.91,112.91 67.4,138.02 260.82,210.53 388.75,149.14 l 6.68,124.42 c -1.36,30.17 -2.42,23.01 -1.3,43.34 3.96,72.17 1.52,145.81 1.52,218.42 l -387.11,61.14 c -60.41,10.06 -335.79,59.67 -371.46,76.78 -61.07,-127.28 -154.76,-464.01 -183.52,-588.83 -45.71,-198.37 -78.53,-455.74 -78.53,-693.83 z m 3117.01,1282.66 -386.7,-75.32 c -71.82,-14.48 -339.87,-55.7 -406.34,-55.7 v -386.18 c 235.5,54.87 408.09,-92.85 406.91,-317.17 l -0.75,-421.41 c 4.22,-39.81 30.95,-27.38 76.5,-26.94 l 537.96,0.06 c 26.29,112.88 -28.8,534.18 -59.1,685.68 -28.84,144.21 -89.58,384.71 -144.74,524.18 -10.47,26.47 -21.25,43 -23.74,72.8 z M 20097.6,7197.23 h 68.96 l 61.96,889.71 c 0.82,76.32 17.69,64.7 -26.4,118.19 -15.25,18.5 -22.33,22.74 -38.35,44.4 -16.36,22.11 -18.36,29.62 -52.38,30.38 -5.87,-21.99 -42.49,-60.57 -62.28,-89.44 -32.61,-47.56 -15.42,-55.58 -13.64,-124.41 l 49.35,-723.01 c 4.09,-37.01 12.78,-106.13 12.78,-145.82 z m 1055.09,75.85 c 72.72,-6.05 360.3,-75.28 386.18,-75.85 l 158.12,538.38 c 20.03,97.47 40.58,198.56 53.63,298.07 13.08,99.66 29.62,216.98 29.62,322.08 h -606.86 c 0,-145.14 15.73,-1001.18 -20.69,-1082.68 z m -2110.18,1082.68 h -606.86 c 35.99,-432.48 73.16,-699.92 211.95,-1091.4 8.67,-24.44 16.53,-41.43 22.52,-67.13 43.5,0 61.85,9.51 99.43,17.8 37.84,8.34 65.47,13.11 103.43,20.7 57.51,11.5 154.96,37.35 210.9,37.35 -43.36,186.13 -17.84,418.36 -32.59,525.99 -10.57,77.11 0.83,197.87 -1.66,281.08 z m 1089.57,41.38 c 57.41,0 90.6,-35.11 118.91,-67.29 l 40.73,-48.92 c 72.16,-88.24 59.81,-101.47 54.15,-214.81 l -50.17,-708.4 c -6.56,-48.46 -11.91,-124.01 -11.91,-181.18 89.2,-23.82 68.96,-171.12 68.96,-262.05 162.45,0 360.42,-14.91 487.83,77.64 262.07,190.38 216.13,497.45 215.5,825.85 l -6.51,1131.17 c -2.52,112.26 -92.48,185.87 -200.3,185.87 -46.43,0 -56.46,-12.96 -89.65,-20.69 0,-130.19 7.19,-641.36 -0.55,-758.58 l 0.55,-579.25 c 0,-82.2 -117.23,-76.79 -117.23,6.89 0,148.66 -5.86,355.87 6.62,496.97 4.3,48.64 -10.08,66.33 -6.49,109.29 7.94,94.84 4.14,26.1 -0.16,104 -7,126.74 0.03,464.13 0.03,606.89 0,321.81 0,643.63 0,965.45 0,160.37 -2.75,323.09 -0.11,483.16 5.06,308.17 -1.39,640.25 0.27,951.38 0.42,78.71 -25.53,136.34 -63.82,177.55 -117.84,126.82 -318.05,95.21 -394.03,-64.83 -34.53,-72.74 -18.14,-232.4 -18.14,-333.56 l 0.02,-1944.71 c 0.16,-37.6 8.41,-117.04 -56.14,-122.12 -20.55,-1.62 -42.25,11.74 -52.09,27.72 -20.28,32.96 -9.02,560.57 -9.02,611.63 v 1586.09 c 0.02,77.46 5.2,101.16 -22.77,156.54 -110.45,218.7 -459.95,191.57 -459.95,-170.33 V 9245.36 c 0,-75.08 7.28,-132.55 6.94,-199.94 -0.74,-144.03 6.85,-268.74 6.85,-406.92 0,-139.92 7.32,-262.56 6.73,-407.03 -0.18,-44.13 6.84,-56.28 7.33,-96.11 l -0.54,-207.43 c 0.5,-41.06 20.86,-149.1 -5.1,-187.46 -14.61,-21.59 -43.56,-30.64 -69.67,-18.98 -48.62,21.71 -35.38,101.86 -35.29,172.24 l -27.59,1206.81 c -175.01,92.6 -307.63,-22.76 -310.6,-151.44 -2.99,-129.72 7.18,-243.04 7.17,-365.76 -0.01,-245.39 13.94,-484.41 13.79,-730.99 -0.04,-69.61 7.06,-111.73 6.91,-179.29 -0.55,-242.88 -5,-545.21 239.11,-691.85 138.55,-83.23 327.99,-66.72 498.76,-66.72 0,90.93 -20.24,238.23 68.96,262.05 l -21.7,350.69 c -5.88,53.12 -11.24,114.45 -12.65,173.54 l -27.33,351.95 c -11.06,141.02 -19.29,125.06 46.49,221.69 46.22,67.9 85.02,122.73 166.9,122.73 z m 1524.03,-1234.39 c 99.24,-2.22 724.85,-216.59 874.81,-276.83 35.45,-14.23 83.52,-30.64 118.22,-47.29 88.34,131.93 182.31,327 241.43,475.76 l 91.08,267.51 c 72.06,258.48 115.73,490.27 115.73,773.86 h -1199.91 c 0,-112.06 -16.24,-225.53 -28.82,-329.77 -26.95,-223.34 -100.33,-516.97 -170.29,-726.2 -7.94,-23.76 -13.74,-43.8 -22.57,-67.08 -8.31,-21.9 -18.8,-37.88 -19.68,-69.96 z m -3337.69,1193.01 h -1193.01 c 0,-180.92 13.96,-311.34 45.35,-478.74 12.71,-67.81 26.54,-137.96 43.42,-197.95 8.79,-31.24 16.23,-59.21 25.47,-91.76 62.09,-218.73 151.9,-436.56 264.73,-631.76 7.96,-13.77 13.38,-26.96 21.29,-40.76 14.73,-25.69 31.56,-51.63 47.98,-76.16 l 232.44,91.67 c 40.08,15.82 81.06,29.9 121.77,43.74 107.14,36.4 558.26,182.58 631.92,188.71 -18.48,34.92 -34.23,92.41 -47.39,131.9 l -80.87,277.73 c -12.75,51.1 -22.57,92.52 -34.35,144.95 l -51.17,307.42 c -6.1,54.87 -8.54,104.94 -14.84,164.46 -4.84,45.69 -2.94,124.47 -12.74,166.55 z m 1710.22,-1441.27 c 17.31,7.15 171.46,0 206.88,0 0,97.41 14.82,165.5 -20.69,165.5 -227.46,0 -186.19,39.15 -186.19,-165.5 z m -331.01,-703.4 c 0,-243.22 194.26,-441.35 399.97,-441.35 171.36,0 260.25,29.46 371.32,159.67 139.57,163.61 124.26,393.91 -21.59,569.35 -57.73,69.44 -187.77,132.99 -287.67,132.99 -107.7,0 -197.21,-10.97 -287.57,-84.81 -94.28,-77.04 -174.46,-186.56 -174.46,-335.85 z m 924.07,-737.88 c 41.97,0 127.29,21.33 168.29,31.69 57.19,14.44 102.68,27.48 158.62,41.37 55.03,13.67 98.95,30.97 151.52,48.47 231.05,76.89 473.36,202.39 674.51,339.2 l 338.47,261.49 c 19.15,18.44 32.63,33.11 51.48,51.96 185.19,185.09 202.26,203.3 354.54,397.13 17.27,21.98 55.5,73.76 61.05,97.56 -43.03,10.03 -73.04,29.18 -114.6,44.02 -23.61,8.43 -32.32,11.54 -56.25,19.6 -284.51,95.87 -434.33,155.66 -737.04,235.3 -28.83,7.59 -40.76,6.94 -64.46,18.31 l -66.94,-167.53 c -54.74,-126.75 -178.37,-369.28 -244.76,-479.32 l -382.83,-582.62 c -93.52,-124.6 -126.12,-157.39 -214.72,-268 -22.75,-28.41 -56.88,-58.75 -76.88,-88.63 z m -2020.54,1579.2 -250.66,-66.56 c -168.88,-48.78 -314.06,-100.99 -477.81,-156.63 l -230.08,-87.14 c 5.98,-25.69 35.99,-63.02 55.14,-89.67 l 310.54,-358.38 326.69,-280.16 c 21.91,-15.12 39.75,-27.87 60.34,-43.1 21.38,-15.81 40.24,-27.66 60.97,-42.47 181.94,-129.98 457.69,-264.01 676.74,-336.98 l 321.79,-91.97 c 23.55,-5.59 62.4,-13.3 86.09,-17.35 31.49,-5.39 60.65,-13.43 87.76,-15.68 -6.84,25.62 -15.6,23.89 -32.4,43.46 -154.73,180.23 -341.59,400.05 -472.45,596.43 l -192.95,296.67 c -103.05,170.7 -144.7,254.41 -233.1,429.02 -41.68,82.34 -63.06,150.59 -96.61,220.51 z m 1455.07,-1399.9 c -81.06,18.88 -123.46,28.32 -190.86,64.3 -314.96,168.16 -381.38,616.56 -135.08,861.59 23.62,23.51 39.56,43.64 67.86,63.17 26.27,18.13 52.77,34.91 80.96,50.06 188.62,101.4 433.77,72.82 608.47,-69.87 21.57,-17.61 15.24,-22.06 44.47,-24.49 4.07,-48.96 151.71,-154.96 151.71,-393.08 0,-164.43 -73.25,-305.17 -156.85,-387.93 -86.2,-85.33 -190.39,-145.92 -314.31,-161.52 -55.52,-6.98 -46.04,13.92 -46.04,-140.15 l 6.9,-89.65 c 18.12,8.7 143.76,9.59 173.5,12.69 138.06,14.41 80.22,9.32 172.89,102.95 17.43,17.62 32.49,29.76 47.71,48.84 l 167.46,204.92 c 136.62,173.82 269.88,358.26 382.8,548.17 l 289.95,544.47 c 20.7,41.63 73.74,160.9 82.83,199.91 l -183.29,37.38 c -50.77,10.04 -148.45,31.58 -195.99,31.58 -9.06,-38.88 -63.48,-125.46 -88.05,-153.31 l -90.09,-89.2 c -108.5,-87 -258.65,-116.09 -435.61,-116.09 l -792.7,2.94 c -153.44,-5.63 -309.62,33.67 -424.82,131.17 -70.22,59.43 -93.29,103.95 -138.17,179.04 -12.76,21.34 -14.05,32.61 -23.52,52.35 l -399.97,-82.76 144.73,-317.31 c 122.23,-234.81 310,-531.72 469.99,-743.71 45.98,-60.92 203.77,-264.14 248.98,-309.6 41.73,-41.98 106.16,-125.78 176.02,-196.37 69.3,-70.05 27.91,-69.02 111.21,-74.98 26.3,-1.89 165.9,-6.31 180.01,-13.08 10.98,26.59 6.9,194.27 6.9,227.57 z"
   class="fil2" />
      <path
   style="fill:#12273f"
   id="path4115"
   d="m 20849.27,10893.52 2.06,-2.06 c -0.14,0.13 -2.75,1.37 -2.06,2.06 z"
   class="fil2" />
      <path
   style="fill:#12273f"
   id="path4117"
   d="m 20559.63,5631.82 2.06,-2.06 c -0.13,0.14 -2.74,1.38 -2.06,2.06 z"
   class="fil2" />
      <path
   style="fill:#12273f"
   id="path4119"
   d="m 21125.11,6411.07 2.06,-2.05 c -0.14,0.13 -2.75,1.37 -2.06,2.05 z"
   class="fil2" />
      <path
   style="fill:#12273f"
   id="path4121"
   d="m 19766.59,5521.48 2.06,-2.05 c -0.14,0.13 -2.75,1.37 -2.06,2.05 z"
   class="fil2" />
      <path
   style="fill:#12273f"
   id="path4123"
   d="m 22607.76,10003.92 2.06,-2.05 c -0.14,0.13 -2.75,1.37 -2.06,2.05 z"
   class="fil2" />
     </g>
    </g>
   </g>
   <path
   style="fill:#132440"
   id="path4131"
   d="m 20603.58,9105.98 c 0,-139.42 -6.6,-468.94 -0.03,-592.73 11.15,-211.46 0.03,-475.08 0.03,-693.7 0,-81.72 156.04,-123.34 156.04,-43.07 l 0.72,605.11 c 7.36,115.84 -4.95,699.57 -0.63,699.57 156.82,20.88 209.37,-9.94 253.48,-157.86 l -21.73,-1069.95 c 0.58,-320.76 43.65,-620.65 -202.07,-806.59 -119.46,-90.41 -225.1,-76.36 -377.4,-76.36 6.45,99.5 -5.62,229.71 -144.66,256.45 0,55.84 5.02,129.64 11.18,176.97 l 47.02,691.86 c 5.3,110.71 34.32,137.56 -33.35,223.74 -21.85,30.35 -85.99,110.49 -149.65,113.49 -76.77,0 -135.79,-43.07 -179.14,-109.42 -61.68,-94.35 -48.76,-103.16 -38.37,-240.89 l 25.6,-343.73 c 1.33,-57.73 6.35,-117.63 11.87,-169.52 l 20.34,-342.5 c -86.71,-18 -124.86,-141.63 -109.86,-256.27 -160.13,0 -292.52,-15.82 -422.43,65.5 -228.88,143.21 -224.71,438.51 -224.21,675.73 0.16,65.96 -6.51,107.11 -6.47,175.1 0.12,240.83 -12.95,474.25 -12.92,713.94 0,119.87 -9.53,230.52 -6.72,357.25 2.77,125.66 148.79,172.21 312.88,81.76 l 4.2,-1112.53 c -0.1,-68.75 -12.51,-147.03 33.09,-168.22 24.48,-11.39 51.64,-2.55 65.34,18.54 24.32,37.45 5.24,142.95 4.76,183.06 0.58,229.93 -12.68,463.55 -12.68,694.01 0,134.97 -7.11,256.77 -6.42,397.45 0.32,65.81 -6.5,121.93 -6.5,195.26 v 2128.35 c 5.18,439.21 421.29,348.86 421.29,51.76 l -5.05,-1664.75 c 0,-49.86 -0.66,-460.22 4.74,-485.81 9.22,-15.62 75.31,-65.71 94.57,-64.13 60.54,4.96 90.79,55.57 90.63,92.34 l 8.6,1929.15 c 0,98.81 -11.91,247.8 20.46,318.86 71.24,156.28 203.28,194.11 313.76,70.26 35.88,-40.26 60.23,-96.54 59.82,-173.43 -1.55,-303.86 4.51,-628.21 -0.26,-929.18 -2.46,-156.34 0.13,-315.29 0.13,-471.92 0,-314.3 0,-628.61 0,-942.95 z"
   class="fil3" />
   <path
   style="fill:#132440"
   id="path4133"
   d="m 20155.78,6609.28 c 86.09,0 198.13,-60.24 247.88,-126.06 125.67,-166.3 138.88,-384.59 18.61,-539.66 -95.71,-123.42 -172.3,-151.35 -319.96,-151.35 -177.26,0 -344.65,187.8 -344.65,418.34 0,141.5 69.09,245.31 150.32,318.33 77.87,70 155,80.4 247.8,80.4 z"
   class="fil3" />
  </g>
 </g>
</svg>